<svg width="36" height="36" viewBox="0 0 36 36" fill="none" xmlns="http://www.w3.org/2000/svg">
<path d="M35.62 17.81C35.62 7.97379 27.6462 0 17.81 0C7.97381 0 0 7.97379 0 17.81C0 26.6994 6.51286 34.0675 15.0272 35.4035V22.9582H10.5051V17.81H15.0272V13.8862C15.0272 9.42258 17.6861 6.95702 21.7543 6.95702C23.7029 6.95702 25.741 7.30487 25.741 7.30487V11.6878H23.4952C21.2828 11.6878 20.5928 13.0606 20.5928 14.4691V17.81H25.5323L24.7427 22.9582H20.5928V35.4035C29.1071 34.0675 35.62 26.6994 35.62 17.81Z" fill="#1877F2"/>
<path d="M24.7426 22.9582L25.5323 17.81H20.5928V14.4691C20.5928 13.0607 21.2827 11.6878 23.4951 11.6878H25.741V7.30488C25.741 7.30488 23.7028 6.95703 21.7542 6.95703C17.6861 6.95703 15.0271 9.42259 15.0271 13.8862V17.81H10.5051V22.9582H15.0271V35.4035C16.8711 35.6921 18.7488 35.6921 20.5928 35.4035V22.9582H24.7426Z" fill="white"/>
</svg>
