<svg width="36" height="36" viewBox="0 0 36 36" fill="none" xmlns="http://www.w3.org/2000/svg">
<path d="M7.89321 21.5231L6.65348 26.1513L2.12227 26.2471C0.768105 23.7354 0 20.8617 0 17.808C0 14.855 0.718159 12.0703 1.99115 9.61829H1.99212L6.02617 10.3579L7.79332 14.3677C7.42346 15.446 7.22187 16.6035 7.22187 17.808C7.22201 19.1152 7.4588 20.3676 7.89321 21.5231Z" fill="#FBBB00"/>
<path d="M35.3047 14.4812C35.5092 15.5584 35.6158 16.6709 35.6158 17.8079C35.6158 19.0829 35.4818 20.3265 35.2264 21.5261C34.3595 25.6082 32.0944 29.1727 28.9565 31.6952L28.9555 31.6942L23.8744 31.4349L23.1553 26.9458C25.2374 25.7247 26.8646 23.8137 27.7218 21.5261H18.1994V14.4812H27.8607H35.3047Z" fill="#518EF8"/>
<path d="M28.9554 31.6942L28.9564 31.6952C25.9046 34.1482 22.0279 35.6159 17.8079 35.6159C11.0262 35.6159 5.13005 31.8253 2.12225 26.2472L7.8932 21.5232C9.39706 25.5368 13.2688 28.3939 17.8079 28.3939C19.7589 28.3939 21.5867 27.8665 23.1551 26.9458L28.9554 31.6942Z" fill="#28B446"/>
<path d="M29.1746 4.09971L23.4056 8.8227C21.7824 7.80807 19.8636 7.22194 17.8079 7.22194C13.1661 7.22194 9.22192 10.2101 7.7934 14.3676L1.99212 9.61821H1.99115C4.95491 3.90403 10.9254 0 17.8079 0C22.1288 0 26.0905 1.53913 29.1746 4.09971Z" fill="#F14336"/>
</svg>
