<svg width="240" height="240" viewBox="0 0 240 240" fill="none" xmlns="http://www.w3.org/2000/svg">
<path d="M44.9999 137H52.9999V160C52.9999 174.866 65.1339 187 79.9999 187H82.9999V210V217H89.9999H160H167V210V167.341C191.186 154.446 207 129.143 207 100C207 57.134 172.866 23 130 23C88.9383 23 56.3675 53.8722 53.1541 94.439L35.4268 117.764L35.2957 117.937L35.1756 118.117C32.5817 122.008 32.823 126.654 34.3942 130.058C36.0317 133.606 39.7058 137 44.9999 137Z" fill="#E7E2DA" stroke="#040505" stroke-width="14"/>
<path d="M93 97.9605C90.2386 97.9605 88 100.199 88 102.961C88 105.722 90.2386 107.961 93 107.961V97.9605ZM114.436 102.961V107.961H117L118.497 105.878L114.436 102.961ZM129.159 82.4737L133.506 80.0031L129.652 73.2209L125.099 79.5558L129.159 82.4737ZM144.236 109L139.889 111.471L145.368 121.112L148.965 110.622L144.236 109ZM159.665 64L164.268 62.0483L159.171 50.0254L154.935 62.3783L159.665 64ZM175.33 100.947L170.727 102.899L172.019 105.947H175.33V100.947ZM195 105.947H200V95.9474H195V105.947ZM93 107.961H114.436V97.9605H93V107.961ZM118.497 105.878L133.22 85.3916L125.099 79.5558L110.376 100.043L118.497 105.878ZM124.812 84.9443L139.889 111.471L148.583 106.529L133.506 80.0031L124.812 84.9443ZM148.965 110.622L164.395 65.6217L154.935 62.3783L139.506 107.378L148.965 110.622ZM155.062 65.9517L170.727 102.899L179.934 98.9956L164.268 62.0483L155.062 65.9517ZM175.33 105.947H195V95.9474H175.33V105.947Z" fill="#155F33"/>
</svg>
