<svg width="102" height="98" viewBox="0 0 102 98" fill="none" xmlns="http://www.w3.org/2000/svg">
<path d="M33 5.20699L50 3.51733V33.9311H22.8L22.9957 25.1957L24.6796 17.5922L26.2 11.9656L29.7932 9.21992L33 5.20699Z" fill="#5130B1" fill-opacity="0.51"/>
<path d="M0 97.854H50.9804H95.2C95.72 97.854 101.961 97.854 101.961 97.854V94.2024C101.961 79.0687 77.1765 72.9794 60.4902 71.2958L64.3529 68.8422C67.9963 66.0146 70.9257 62.4997 72.9397 58.5392C74.9537 54.5787 76.0044 50.2667 76.0196 45.8998L79.9412 36.1032C79.9506 36.0019 79.9506 35.9001 79.9412 35.7988C82.6667 21.2919 79.1372 11.0475 69.4902 5.35221C54.098 -4.15786 32.2608 0.283253 27.1608 8.73152C23.7608 10.4212 20.9412 18.2114 21.1765 24.0321C21.4118 30.2826 21.6471 34.2943 22.6274 36.3002C22.8039 36.8375 25.3725 45.0044 25.3725 45.5596C25.3271 50.0982 26.4037 54.5878 28.5222 58.6935C30.6407 62.7992 33.7464 66.4152 37.6079 69.272L41.5098 71.6003C24.9804 73.1047 5.26905e-06 79.0508 5.26905e-06 94.2024L0 97.854ZM50.9804 91.9099C44.4314 85.8385 41.5098 82.3462 41.5098 74.3763V71.6003C44.3272 73.0094 47.4749 73.7774 50.6863 73.839C54.1396 73.7772 57.5168 72.9011 60.4902 71.2958V74.3763C60.4706 82.2387 57.3922 85.946 50.9804 91.9099ZM67.4118 8.36104C75.7451 13.2683 78.6274 21.9904 76.2157 35.0286L72.2353 45.6312L29.4118 46.2043L33.9608 7.04185C33.9608 7.04185 53.7059 -0.146078 67.4118 8.36104ZM29.4118 46.2043C28.6863 43.8223 25.5098 34.5093 25.098 23.9067C24.9412 20.2173 28.8608 10.4212 33.9608 7.04185L29.4118 46.2043ZM29.4118 46.2043L72.2353 45.6312C72.2353 60.7112 59.5294 70.3287 50.7843 70.3287C42.0392 70.3287 29.6863 60.9082 29.4118 46.2043Z" fill="black"/>
<line x1="77.2" y1="34.1812" x2="22.8" y2="34.1812" stroke="black" stroke-width="0.5"/>
<line x1="50.25" y1="3.51733" x2="50.25" y2="33.9311" stroke="black" stroke-width="0.5"/>
</svg>
