<svg width="32" height="38" viewBox="0 0 32 38" fill="none" xmlns="http://www.w3.org/2000/svg">
<path d="M8.96947 38C1.18387 33.6121 -0.865911 29.4588 0.306009 23.7864C1.17117 19.5978 4.0041 16.19 4.27574 12.0094C5.48588 14.2117 5.99153 15.7996 6.12675 18.101C9.97561 13.3853 12.519 6.85729 12.6696 0C12.6696 0 22.6945 5.89032 23.3523 14.7877C24.2153 12.9538 24.6497 10.0411 23.7867 8.15341C26.3757 10.0412 41.5293 26.7999 21.7342 38C25.4559 30.7535 22.6943 20.9757 16.2324 16.4598C16.664 18.4015 15.9074 25.6438 13.0486 28.8261C13.8407 23.5087 12.2949 21.2603 12.2949 21.2603C12.2949 21.2603 11.7644 24.2387 9.70594 27.2474C7.82621 29.9949 6.52376 32.9109 8.96947 38V38Z" fill="#5130B1"/>
</svg>
