<svg width="37" height="37" viewBox="0 0 37 37" fill="none" xmlns="http://www.w3.org/2000/svg">
<path d="M22.2474 18.0123L35.1474 5.14228C35.7123 4.57736 36.0297 3.81118 36.0297 3.01228C36.0297 2.21337 35.7123 1.44719 35.1474 0.882275C34.5825 0.317364 33.8163 0 33.0174 0C32.2185 0 31.4523 0.317364 30.8874 0.882275L18.0174 13.7823L5.1474 0.882275C4.58248 0.317364 3.8163 -5.9523e-09 3.0174 0C2.21849 5.95231e-09 1.45231 0.317364 0.887395 0.882275C0.322484 1.44719 0.00511981 2.21337 0.0051198 3.01228C0.00511979 3.81118 0.322484 4.57736 0.887395 5.14228L13.7874 18.0123L0.887395 30.8823C0.60621 31.1612 0.383028 31.493 0.230721 31.8585C0.0784154 32.2241 0 32.6162 0 33.0123C0 33.4083 0.0784154 33.8004 0.230721 34.166C0.383028 34.5316 0.60621 34.8634 0.887395 35.1423C1.16628 35.4235 1.49809 35.6466 1.86366 35.799C2.22924 35.9513 2.62136 36.0297 3.0174 36.0297C3.41343 36.0297 3.80555 35.9513 4.17113 35.799C4.5367 35.6466 4.86851 35.4235 5.1474 35.1423L18.0174 22.2423L30.8874 35.1423C31.1663 35.4235 31.4981 35.6466 31.8637 35.799C32.2292 35.9513 32.6214 36.0297 33.0174 36.0297C33.4134 36.0297 33.8055 35.9513 34.1711 35.799C34.5367 35.6466 34.8685 35.4235 35.1474 35.1423C35.4286 34.8634 35.6518 34.5316 35.8041 34.166C35.9564 33.8004 36.0348 33.4083 36.0348 33.0123C36.0348 32.6162 35.9564 32.2241 35.8041 31.8585C35.6518 31.493 35.4286 31.1612 35.1474 30.8823L22.2474 18.0123Z" fill="#E7DADD"/>
</svg>
