<svg width="41" height="41" viewBox="0 0 41 41" fill="none" xmlns="http://www.w3.org/2000/svg">
<path d="M20.2385 12.5996C21.6192 12.5996 22.7385 11.4803 22.7385 10.0996C22.7385 8.7189 21.6192 7.59961 20.2385 7.59961C18.8578 7.59961 17.7385 8.7189 17.7385 10.0996C17.7385 11.4803 18.8578 12.5996 20.2385 12.5996Z" fill="#E7DADD"/>
<path d="M20.2385 22.5996C21.6192 22.5996 22.7385 21.4803 22.7385 20.0996C22.7385 18.7189 21.6192 17.5996 20.2385 17.5996C18.8578 17.5996 17.7385 18.7189 17.7385 20.0996C17.7385 21.4803 18.8578 22.5996 20.2385 22.5996Z" fill="#E7DADD"/>
<path d="M20.2385 32.5996C21.6192 32.5996 22.7385 31.4803 22.7385 30.0996C22.7385 28.7189 21.6192 27.5996 20.2385 27.5996C18.8578 27.5996 17.7385 28.7189 17.7385 30.0996C17.7385 31.4803 18.8578 32.5996 20.2385 32.5996Z" fill="#E7DADD"/>
</svg>
