<svg width="97" height="98" viewBox="0 0 97 98" fill="none" xmlns="http://www.w3.org/2000/svg">
<path d="M54.9296 3.6626H48.4629V34.0764H74.3296L74.1435 25.3409L72.5421 17.7375L69.2805 13.1669L67.6792 9.36518L54.9296 3.6626Z" fill="#5130B1" fill-opacity="0.51"/>
<path d="M0 97.854H48.4814H90.5333C91.0279 97.854 96.9627 97.854 96.9627 97.854V94.2024C96.9627 79.0687 73.3933 72.9794 57.525 71.2958L61.1984 68.8422C64.6631 66.0146 67.449 62.4997 69.3642 58.5392C71.2795 54.5787 72.2787 50.2667 72.2931 45.8998L76.0225 36.1032C76.0315 36.0019 76.0315 35.9001 76.0225 35.7988C78.6144 21.2919 75.258 11.0475 66.0838 5.35221C51.4462 -4.15786 30.6794 0.283253 25.8294 8.73152C22.596 10.4212 19.9146 18.2114 20.1384 24.0321C20.3622 30.2826 20.5859 34.2943 21.5183 36.3002C21.6861 36.8375 24.1288 45.0044 24.1288 45.5596C24.0855 50.0982 25.1094 54.5878 27.1241 58.6935C29.1387 62.7992 32.0922 66.4152 35.7643 69.272L39.475 71.6003C23.7559 73.1047 5.01076e-06 79.0508 5.01076e-06 94.2024L0 97.854ZM48.4814 91.9099C42.2534 85.8385 39.475 82.3462 39.475 74.3763V71.6003C42.1543 73.0094 45.1477 73.7774 48.2017 73.839C51.4857 73.7772 54.6973 72.9011 57.525 71.2958V74.3763C57.5063 82.2387 54.5788 85.946 48.4814 91.9099ZM64.1073 8.36104C72.0321 13.2683 74.7732 21.9904 72.4796 35.0286L68.6943 45.6312L27.97 46.2043L32.296 7.04185C32.296 7.04185 51.0732 -0.146078 64.1073 8.36104ZM27.97 46.2043C27.2801 43.8223 24.2593 34.5093 23.8677 23.9067C23.7186 20.2173 27.446 10.4212 32.296 7.04185L27.97 46.2043ZM27.97 46.2043L68.6943 45.6312C68.6943 60.7112 56.6113 70.3287 48.2949 70.3287C39.9785 70.3287 28.2311 60.9082 27.97 46.2043Z" fill="black"/>
<line x1="48.7129" y1="3.6626" x2="48.7129" y2="34.0764" stroke="black" stroke-width="0.5"/>
<line x1="49" y1="33.75" x2="73" y2="33.75" stroke="black" stroke-width="0.5"/>
</svg>
