<svg width="71" height="50" viewBox="0 0 71 50" fill="none" xmlns="http://www.w3.org/2000/svg">
<path d="M34 42.1459C33.5587 42.1475 33.1283 42.0089 32.7708 41.7501L17.3333 30.3751C17.2474 30.317 17.1702 30.2468 17.1042 30.1668C15.8903 28.9537 14.9274 27.5133 14.2704 25.9279C13.6134 24.3426 13.2752 22.6433 13.2752 20.9272C13.2752 19.2111 13.6134 17.5118 14.2704 15.9264C14.9274 14.341 15.8903 12.9007 17.1042 11.6876C19.3077 9.49844 22.2202 8.16763 25.3176 7.93466C28.415 7.70169 31.4938 8.58186 34 10.4168C36.5146 8.55356 39.6154 7.65676 42.7364 7.89007C45.8573 8.12337 48.7903 9.47123 51 11.6876C52.2139 12.9007 53.1768 14.341 53.8338 15.9264C54.4908 17.5118 54.8289 19.2111 54.8289 20.9272C54.8289 22.6433 54.4908 24.3426 53.8338 25.9279C53.1768 27.5133 52.2139 28.9537 51 30.1668C50.934 30.2468 50.8568 30.317 50.7708 30.3751L35.2292 41.6668C34.8822 41.9554 34.4508 42.1236 34 42.1459ZM19.8333 27.0834L34 37.5001L48.1667 27.0834C49.7916 25.4023 50.6913 23.1501 50.6718 20.8121C50.6523 18.4741 49.7153 16.2373 48.0625 14.5834C46.3976 12.9397 44.1521 12.0179 41.8125 12.0179C39.4729 12.0179 37.2274 12.9397 35.5625 14.5834C35.3086 14.6892 34.275 17.0001 34 17.0001C33.725 17.0001 32.6042 14.5834 32.6042 14.5834C30.9466 12.8899 28.6841 11.9242 26.3145 11.8988C23.9449 11.8734 21.6623 12.7904 19.9687 14.448C18.2752 16.1056 17.3095 18.3681 17.2842 20.7377C17.2588 23.1073 18.1757 25.3899 19.8333 27.0834Z" fill="#5130B1"/>
<line y1="-1.5" x2="7.03721" y2="-1.5" transform="matrix(0.886822 0.462112 -0.527344 0.849652 0.469299 13.2168)" stroke="#5130B1" stroke-width="3"/>
<line y1="-1.5" x2="7.03719" y2="-1.5" transform="matrix(0.886797 -0.462159 0.527394 0.849621 1.66586 36.2041)" stroke="#5130B1" stroke-width="3"/>
<line y1="-1.5" x2="7.03719" y2="-1.5" transform="matrix(0.886797 -0.462159 0.527393 0.849621 63.887 16.4692)" stroke="#5130B1" stroke-width="3"/>
<line y1="23.2102" x2="7.17936" y2="23.2102" stroke="#5130B1" stroke-width="3"/>
<line x1="62.6904" y1="23.7771" x2="69.8698" y2="23.7771" stroke="#5130B1" stroke-width="3"/>
<line y1="-1.5" x2="7.03721" y2="-1.5" transform="matrix(0.886821 0.462113 -0.527343 0.849652 61.4939 34.0481)" stroke="#5130B1" stroke-width="3"/>
</svg>
