<svg width="27" height="16" viewBox="0 0 27 16" fill="none" xmlns="http://www.w3.org/2000/svg">
<g clip-path="url(#clip0_221_3098)">
<path d="M3.12741 12.0488V3.04883H17.5719V12.0488H3.12741ZM24.7941 3.79883C25.1928 3.79883 25.5332 3.94531 25.8153 4.23828C26.0975 4.53125 26.2385 4.88477 26.2385 5.29883V9.79883C26.2385 10.2129 26.0975 10.5664 25.8153 10.8594C25.5332 11.1523 25.1928 11.2988 24.7941 11.2988V13.1738C24.7941 13.6895 24.6173 14.1309 24.2637 14.498C23.9101 14.8652 23.4851 15.0488 22.9885 15.0488H2.04408C1.54755 15.0488 1.1225 14.8652 0.768907 14.498C0.415319 14.1309 0.238525 13.6895 0.238525 13.1738V1.92383C0.238525 1.4082 0.415319 0.966797 0.768907 0.599609C1.1225 0.232422 1.54755 0.0488281 2.04408 0.0488281H22.9885C23.4851 0.0488281 23.9101 0.232422 24.2637 0.599609C24.6173 0.966797 24.7941 1.4082 24.7941 1.92383V3.79883ZM24.7941 9.79883V5.29883H23.3496V1.92383C23.3496 1.81445 23.3158 1.72461 23.2481 1.6543C23.1804 1.58398 23.0938 1.54883 22.9885 1.54883H2.04408C1.93876 1.54883 1.85224 1.58398 1.78453 1.6543C1.71682 1.72461 1.68297 1.81445 1.68297 1.92383V13.1738C1.68297 13.2832 1.71682 13.373 1.78453 13.4434C1.85224 13.5137 1.93876 13.5488 2.04408 13.5488H22.9885C23.0938 13.5488 23.1804 13.5137 23.2481 13.4434C23.3158 13.373 23.3496 13.2832 23.3496 13.1738V9.79883H24.7941Z" fill="#E7DADD"/>
</g>
<defs>
<clipPath id="clip0_221_3098">
<rect width="26" height="15" fill="white" transform="translate(0.238525 0.0488281)"/>
</clipPath>
</defs>
</svg>
